<svg width="452" height="69" xmlns="http://www.w3.org/2000/svg" xmlns:xlink="http://www.w3.org/1999/xlink" xml:space="preserve" overflow="hidden"><defs><clipPath id="clip0"><rect x="21" y="41" width="452" height="69"/></clipPath><clipPath id="clip1"><rect x="22" y="42" width="451" height="68"/></clipPath><clipPath id="clip2"><rect x="22" y="42" width="451" height="68"/></clipPath><clipPath id="clip3"><rect x="22" y="42" width="451" height="68"/></clipPath></defs><g clip-path="url(#clip0)" transform="translate(-21 -41)"><g clip-path="url(#clip1)"><g clip-path="url(#clip2)"><g clip-path="url(#clip3)"><path d="M0 25.3843 3.5511 25.3843 5.37563 3.11028 1.73881 3.11028 1.73881 0 9.82063 0 17.131 17.3759C17.5718 18.5514 17.78 19.4331 17.78 19.4331L17.8658 19.4331C17.8658 19.4331 18.0739 18.5392 18.5147 17.3759L25.8251 0 33.9069 0 33.9069 3.11028 30.2701 3.11028 32.0946 25.3843 35.6457 25.3843 35.6457 28.5312 24.6496 28.5312 24.6496 25.3843 28.0904 25.3843 26.7924 8.32672C26.7557 7.43282 26.9149 5.9879 26.9149 5.9879L26.7924 5.9879C26.7924 5.9879 26.4741 7.35935 26.1434 8.16753L19.5922 23.1556 16.0412 23.1556 9.50226 8.16753C9.17164 7.35935 8.85327 5.97565 8.85327 5.97565L8.73081 5.97565C8.73081 5.97565 8.89 7.43282 8.85327 8.31448L7.55528 25.3843 10.9962 25.3843 10.9962 28.5312 0 28.5312 0 25.3843Z" fill="#3D92DB" fill-rule="nonzero" fill-opacity="1" transform="matrix(1 0 0 1.00238 22 42)"/><path d="M47.7196 7.59204C53.8176 7.59204 58.7525 12.0738 58.7525 18.2576 58.7525 24.4781 53.8176 29.0088 47.7196 29.0088 41.6214 29.0088 36.6867 24.4781 36.6867 18.2576 36.6867 12.086 41.6214 7.59204 47.7196 7.59204ZM47.7196 25.6169C51.5645 25.6169 54.7483 22.5435 54.7483 18.2576 54.7483 14.0085 51.5523 10.984 47.7196 10.984 43.8378 10.984 40.6908 14.0208 40.6908 18.2576 40.6908 22.5557 43.85 25.6169 47.7196 25.6169Z" fill="#3D92DB" fill-rule="nonzero" fill-opacity="1" transform="matrix(1 0 0 1.00238 22 42)"/><path d="M60.6136 25.5064 63.6871 25.5064 63.6871 12C63.6871 11.3877 63.3688 11.1061 62.7933 11.1061L60.2462 11.1061 60.2462 8.08152 64.8504 8.08152C66.626 8.08152 67.4832 8.80398 67.4832 10.4693L67.4832 11.7551C67.4832 12.5633 67.3974 13.1633 67.3974 13.1633L67.4832 13.1633C68.4138 10.1755 70.8016 7.82437 73.9485 7.82437 74.4752 7.82437 74.9527 7.91009 74.9527 7.91009L74.9527 11.7918C74.9527 11.7918 74.4629 11.6694 73.8262 11.6694 69.4668 11.6694 67.6057 16.0776 67.6057 20.0818L67.6057 25.4942 70.6424 25.4942 70.6424 28.531 60.6136 28.531 60.6136 25.5064Z" fill="#3D92DB" fill-rule="nonzero" fill-opacity="1" transform="matrix(1 0 0 1.00238 22 42)"/><path d="M76.0425 8.08201 85.2141 8.08201 85.2141 11.1188 82.5815 11.1188 86.9039 23.0456C87.2224 23.9396 87.3449 24.9436 87.3449 24.9436L87.4672 24.9436C87.4672 24.9436 87.5897 23.9272 87.9081 23.0456L92.2674 11.1188 89.6347 11.1188 89.6347 8.08201 98.7696 8.08201 98.7696 11.1188 96.2225 11.1188 89.6224 28.5315 85.2141 28.5315 78.6385 11.1188 76.0425 11.1188 76.0425 8.08201Z" fill="#3D92DB" fill-rule="nonzero" fill-opacity="1" transform="matrix(1 0 0 1.00238 22 42)"/><path d="M100.288 25.5068 103.484 25.5068 103.484 11.1186 100.092 11.1186 100.092 8.08182 107.402 8.08182 107.402 25.4944 110.635 25.4944 110.635 28.5312 100.288 28.5312 100.288 25.5068ZM103.41 0 107.537 0 107.537 4.00418 103.41 4.00418 103.41 0Z" fill="#3D92DB" fill-rule="nonzero" fill-opacity="1" transform="matrix(1 0 0 1.00238 22 42)"/><path d="M114.235 3.0368 110.843 3.0368 110.843 0 118.154 0 118.154 22.4699C118.154 24.2088 118.558 25.3843 120.334 25.3843 120.983 25.3843 121.423 25.3476 121.423 25.3476L121.387 28.5802C121.387 28.5802 120.578 28.666 119.648 28.666 116.733 28.666 114.235 27.4904 114.235 22.727L114.235 3.0368Z" fill="#3D92DB" fill-rule="nonzero" fill-opacity="1" transform="matrix(1 0 0 1.00238 22 42)"/><path d="M124.987 3.0368 121.595 3.0368 121.595 0 128.906 0 128.906 22.4699C128.906 24.2088 129.309 25.3843 131.085 25.3843 131.733 25.3843 132.174 25.3476 132.174 25.3476L132.138 28.5802C132.138 28.5802 131.33 28.666 130.399 28.666 127.485 28.666 124.987 27.4904 124.987 22.727L124.987 3.0368Z" fill="#3D92DB" fill-rule="nonzero" fill-opacity="1" transform="matrix(1 0 0 1.00238 22 42)"/><path d="M145.069 7.59204C151.167 7.59204 156.101 12.0738 156.101 18.2576 156.101 24.4781 151.167 29.0088 145.069 29.0088 138.971 29.0088 134.036 24.4781 134.036 18.2576 134.036 12.086 138.971 7.59204 145.069 7.59204ZM145.069 25.6169C148.914 25.6169 152.098 22.5435 152.098 18.2576 152.098 14.0085 148.902 10.984 145.069 10.984 141.187 10.984 138.04 14.0208 138.04 18.2576 138.04 22.5557 141.187 25.6169 145.069 25.6169Z" fill="#3D92DB" fill-rule="nonzero" fill-opacity="1" transform="matrix(1 0 0 1.00238 22 42)"/><path d="M164.992 25.629 167.734 25.629 176.832 0.244751 181.4 0.244751 190.498 25.629 193.242 25.629 193.242 28.7761 183.335 28.7761 183.335 25.629 186.371 25.629 184.142 19.286 174.041 19.286 171.812 25.629 174.886 25.629 174.886 28.7761 164.979 28.7761 164.979 25.629 164.992 25.629ZM183.139 16.0533 179.661 6.14693C179.257 4.97139 179.171 3.96728 179.171 3.96728L179.05 3.96728C179.05 3.96728 178.926 4.98364 178.56 6.14693L175.045 16.0533 183.139 16.0533Z" fill="#3D92DB" fill-rule="nonzero" fill-opacity="1" transform="matrix(1 0 0 1.00238 22 42)"/><path d="M196.107 3.28156 192.666 3.28156 192.666 0.244751 200.025 0.244751 200.025 9.69803C200.025 10.6654 199.902 11.4001 199.902 11.4001L199.988 11.4001C199.988 11.4001 201.813 7.84901 206.576 7.84901 212.111 7.84901 215.588 12.2083 215.588 18.5635 215.588 25.0657 211.67 29.2781 206.258 29.2781 201.532 29.2781 199.792 25.5555 199.792 25.5555L199.706 25.5555C199.706 25.5555 199.829 26.278 199.829 27.1719L199.829 28.7882 196.107 28.7882 196.107 3.28156ZM205.731 25.874C208.927 25.874 211.597 23.2412 211.597 18.6003 211.597 14.1552 209.209 11.2899 205.817 11.2899 202.78 11.2899 199.915 13.4328 199.915 18.6493 199.915 22.2739 201.813 25.874 205.731 25.874Z" fill="#3D92DB" fill-rule="nonzero" fill-opacity="1" transform="matrix(1 0 0 1.00238 22 42)"/><path d="M218.503 25.7518 221.577 25.7518 221.577 12.2576C221.577 11.6454 221.258 11.3637 220.682 11.3637L218.136 11.3637 218.136 8.32692 222.74 8.32692C224.515 8.32692 225.373 9.04937 225.373 10.7147L225.373 12.0127C225.373 12.8208 225.286 13.421 225.286 13.421L225.373 13.421C226.303 10.4331 228.691 8.08201 231.838 8.08201 232.364 8.08201 232.842 8.16772 232.842 8.16772L232.842 12.0495C232.842 12.0495 232.353 11.927 231.716 11.927 227.357 11.927 225.495 16.3352 225.495 20.3395L225.495 25.7518 228.531 25.7518 228.531 28.7886 218.503 28.7886 218.503 25.7518Z" fill="#3D92DB" fill-rule="nonzero" fill-opacity="1" transform="matrix(1 0 0 1.00238 22 42)"/><path d="M245.21 16.2125 246.507 16.2125 246.507 15.441C246.507 12.2083 244.647 11.0818 242.148 11.0818 238.916 11.0818 236.283 13.0656 236.283 13.0656L234.703 10.2736C234.703 10.2736 237.691 7.84906 242.467 7.84906 247.683 7.84906 250.427 10.5552 250.427 15.735L250.427 24.8698C250.427 25.4821 250.745 25.7638 251.32 25.7638L253.378 25.7638 253.378 28.8006 249.3 28.8006C247.475 28.8006 246.752 27.9067 246.752 26.5719L246.752 26.2903C246.752 25.4821 246.912 24.9556 246.912 24.9556L246.826 24.9556C246.826 24.9556 245.05 29.2781 240.079 29.2781 236.687 29.2781 233.295 27.2944 233.295 23.0943 233.283 16.6533 241.818 16.2125 245.21 16.2125ZM240.924 26.2413C244.402 26.2413 246.545 22.6902 246.545 19.6167L246.545 18.7718 245.54 18.7718C243.679 18.7718 237.25 18.8575 237.25 22.7759 237.25 24.576 238.585 26.2413 240.924 26.2413Z" fill="#3D92DB" fill-rule="nonzero" fill-opacity="1" transform="matrix(1 0 0 1.00238 22 42)"/><path d="M255.508 25.7515 258.704 25.7515 258.704 12.2083C258.704 11.6451 258.385 11.3634 257.81 11.3634L255.3 11.3634 255.3 8.32663 259.904 8.32663C261.643 8.32663 262.488 9.09808 262.488 10.592L262.488 11.6451C262.488 12.2941 262.365 12.8206 262.365 12.8206L262.451 12.8206C263.456 10.3961 266.407 7.84906 269.724 7.84906 272.994 7.84906 275.015 9.34297 275.7 12.6614L275.786 12.6614C276.913 10.1144 279.741 7.84906 283.096 7.84906 287.627 7.84906 289.771 10.4818 289.771 15.686L289.771 25.7515 293.003 25.7515 293.003 28.7884 285.851 28.7884 285.851 16.5432C285.851 13.6777 285.325 11.4124 282.252 11.4124 278.406 11.4124 276.227 15.3309 276.227 19.3718L276.227 25.7515 279.423 25.7515 279.423 28.7884 272.309 28.7884 272.309 16.5432C272.309 13.8737 271.904 11.4124 268.757 11.4124 264.875 11.4124 262.61 15.539 262.61 19.5309L262.61 25.7515 265.843 25.7515 265.843 28.7884 255.496 28.7884 255.496 25.7515 255.508 25.7515Z" fill="#3D92DB" fill-rule="nonzero" fill-opacity="1" transform="matrix(1 0 0 1.00238 22 42)"/><path d="M305.015 7.84906C311.113 7.84906 316.048 12.3308 316.048 18.5146 316.048 24.7352 311.113 29.2659 305.015 29.2659 298.918 29.2659 293.982 24.7352 293.982 18.5146 293.982 12.3308 298.918 7.84906 305.015 7.84906ZM305.015 25.874C308.86 25.874 312.044 22.8004 312.044 18.5146 312.044 14.2655 308.848 11.241 305.015 11.241 301.134 11.241 297.987 14.2777 297.987 18.5146 297.987 22.8004 301.134 25.874 305.015 25.874Z" fill="#3D92DB" fill-rule="nonzero" fill-opacity="1" transform="matrix(1 0 0 1.00238 22 42)"/><path d="M315.473 8.32675 324.607 8.32675 324.607 11.3636 321.865 11.3636 325.342 23.2413C325.587 24.0863 325.661 25.1394 325.661 25.1394L325.783 25.1394C325.783 25.1394 325.868 24.0863 326.102 23.2413L330.583 8.3635 334.134 8.3635 338.616 23.2413C338.861 24.0863 338.935 25.1394 338.935 25.1394L339.057 25.1394C339.057 25.1394 339.142 24.0863 339.376 23.2413L342.889 11.3636 340.098 11.3636 340.098 8.32675 349.232 8.32675 349.232 11.3636 346.686 11.3636 341.432 28.7885 337.073 28.7885 332.75 15.1228C332.505 14.1922 332.383 13.188 332.383 13.188L332.298 13.188C332.298 13.188 332.175 14.2045 331.93 15.1228L327.607 28.7885 323.248 28.7885 317.995 11.3636 315.447 11.3636 315.447 8.32675 315.473 8.32675Z" fill="#3D92DB" fill-rule="nonzero" fill-opacity="1" transform="matrix(1 0 0 1.00238 22 42)"/><path d="M351.608 25.7515 354.804 25.7515 354.804 11.3634 351.412 11.3634 351.412 8.32657 358.722 8.32657 358.722 25.7392 361.954 25.7392 361.954 28.7761 351.608 28.7761 351.608 25.7515ZM354.718 0.244751 358.845 0.244751 358.845 4.24892 354.718 4.24892 354.718 0.244751Z" fill="#3D92DB" fill-rule="nonzero" fill-opacity="1" transform="matrix(1 0 0 1.00238 22 42)"/><path d="M365.58 11.3636 362.139 11.3636 362.139 8.32678 365.653 8.32678 365.653 2.71849 369.498 2.71849 369.498 8.32678 374.384 8.32678 374.384 11.3636 369.498 11.3636 369.498 20.9393C369.498 25.1027 372.328 25.6292 373.858 25.6292 374.42 25.6292 374.789 25.5924 374.789 25.5924L374.789 28.862C374.789 28.862 374.224 28.9477 373.368 28.9477 370.784 28.9477 365.568 28.1395 365.568 21.3067L365.568 11.3636 365.58 11.3636Z" fill="#3D92DB" fill-rule="nonzero" fill-opacity="1" transform="matrix(1 0 0 1.00238 22 42)"/><path d="M389.189 12.5391C389.801 11.8166 390.315 11.3636 390.315 11.3636L390.315 11.2779C390.315 11.2779 389.471 11.3636 388.661 11.3636L381.547 11.3636 381.547 14.633 378.106 14.633 378.106 8.32675 395.042 8.32675 395.042 10.9105 383.85 24.5761C383.237 25.2986 382.723 25.7027 382.723 25.7027L382.723 25.7884C382.723 25.7884 383.531 25.7516 384.34 25.7516L391.895 25.7516 391.895 22.4822 395.336 22.4822 395.336 28.7885 377.923 28.7885 377.923 26.2047 389.189 12.5391Z" fill="#3D92DB" fill-rule="nonzero" fill-opacity="1" transform="matrix(1 0 0 1.00238 22 42)"/><path d="M15.392 38.3398C20.4004 38.3398 26.3393 40.3602 26.3393 43.9603L26.3393 47.4747 22.6167 47.4747 22.6167 45.3685C22.6167 42.9807 18.8575 41.8174 15.5023 41.8174 8.82866 41.8174 4.62857 46.3481 4.62857 52.8871 4.62857 59.475 8.91437 64.324 15.6247 64.324 18.1718 64.324 23.2657 63.5526 23.2657 60.7729L23.2657 57.0137 17.6941 57.0137 17.6941 53.8666 26.9883 53.8666 26.9883 61.8628C26.9883 66.271 19.6289 67.8384 15.343 67.8384 6.57554 67.8384 0.428468 61.4586 0.428468 53.0095 0.428468 44.5603 6.50208 38.3398 15.392 38.3398Z" fill="#FFFFFF" fill-rule="nonzero" fill-opacity="1" transform="matrix(1 0 0 1.00238 22 42)"/><path d="M29.817 64.324 32.8905 64.324 32.8905 50.8298C32.8905 50.2177 32.5721 49.936 31.9966 49.936L29.4495 49.936 29.4495 46.8992 34.0538 46.8992C35.8294 46.8992 36.6865 47.6216 36.6865 49.287L36.6865 50.585C36.6865 51.3931 36.6007 51.9931 36.6007 51.9931L36.6865 51.9931C37.6172 49.0054 40.005 46.6543 43.1519 46.6543 43.6785 46.6543 44.156 46.7399 44.156 46.7399L44.156 50.6217C44.156 50.6217 43.6662 50.4993 43.0295 50.4993 38.6702 50.4993 36.8089 54.9076 36.8089 58.9117L36.8089 64.324 39.8458 64.324 39.8458 67.3486 29.817 67.3486 29.817 64.324Z" fill="#FFFFFF" fill-rule="nonzero" fill-opacity="1" transform="matrix(1 0 0 1.00238 22 42)"/><path d="M56.5363 54.7851 57.8343 54.7851 57.8343 54.0136C57.8343 50.781 55.973 49.6543 53.4749 49.6543 50.2423 49.6543 47.6095 51.6381 47.6095 51.6381L46.0299 48.8462C46.0299 48.8462 49.0177 46.4216 53.7934 46.4216 59.0098 46.4216 61.7527 49.1278 61.7527 54.3076L61.7527 63.4424C61.7527 64.0547 62.071 64.3363 62.6465 64.3363L64.7038 64.3363 64.7038 67.3486 60.6139 67.3486C58.7894 67.3486 58.0669 66.4548 58.0669 65.12L58.0669 64.8383C58.0669 64.0302 58.2261 63.5037 58.2261 63.5037L58.1404 63.5037C58.1404 63.5037 56.3648 67.8263 51.3933 67.8263 48.0014 67.8263 44.6094 65.8425 44.6094 61.6424 44.6094 55.2259 53.1444 54.7851 56.5363 54.7851ZM52.2504 64.8139C55.728 64.8139 57.871 61.2628 57.871 58.1893L57.871 57.3443 56.8546 57.3443C54.9934 57.3443 48.5647 57.43 48.5647 61.3484 48.5768 63.1485 49.8993 64.8139 52.2504 64.8139Z" fill="#FFFFFF" fill-rule="nonzero" fill-opacity="1" transform="matrix(1 0 0 1.00238 22 42)"/><path d="M66.8346 64.324 70.0305 64.324 70.0305 50.8298C70.0305 50.2177 69.7122 49.936 69.1365 49.936L66.6264 49.936 66.6264 46.8992 71.2305 46.8992C73.0061 46.8992 73.8143 47.6706 73.8143 49.1645L73.8143 50.2177C73.8143 50.8666 73.6918 51.3931 73.6918 51.3931L73.7776 51.3931C74.1816 50.3033 76.5694 46.4216 81.7369 46.4216 86.4268 46.4216 88.5208 49.0544 88.5208 54.2586L88.5208 64.324 91.7535 64.324 91.7535 67.3486 84.6145 67.3486 84.6145 55.1402C84.6145 52.2748 84.0512 50.0095 80.7696 50.0095 76.6429 50.0095 73.9367 53.7687 73.9367 57.8463L73.9367 64.3118 77.1695 64.3118 77.1695 67.3486 66.8223 67.3486 66.8223 64.324 66.8346 64.324Z" fill="#FFFFFF" fill-rule="nonzero" fill-opacity="1" transform="matrix(1 0 0 1.00238 22 42)"/><path d="M101.304 46.4216C105.958 46.4216 107.611 49.8625 107.611 49.8625L107.696 49.8625C107.696 49.8625 107.574 49.2135 107.574 48.3319L107.574 41.8664 104.182 41.8664 104.182 38.8173 111.492 38.8173 111.492 63.4301C111.492 64.0424 111.811 64.324 112.386 64.324L114.443 64.324 114.443 67.3486 110.366 67.3486C108.554 67.3486 107.819 66.4547 107.819 65.12L107.819 64.8383C107.819 64.1526 107.941 63.7485 107.941 63.7485L107.856 63.7485C107.856 63.7485 106.202 67.8261 100.949 67.8261 95.4512 67.8261 92.0226 63.4669 92.0226 57.1115 92.0103 50.6217 95.8064 46.4216 101.304 46.4216ZM101.794 64.4465C104.831 64.4465 107.696 62.2668 107.696 57.1729 107.696 53.4136 105.798 49.8625 101.917 49.8625 98.6471 49.8625 96.0145 52.4951 96.0145 57.136 96.0145 61.5689 98.39 64.4465 101.794 64.4465Z" fill="#FFFFFF" fill-rule="nonzero" fill-opacity="1" transform="matrix(1 0 0 1.00238 22 42)"/><path d="M126.358 64.2015 129.909 64.2015 129.909 41.9275 126.358 41.9275 126.358 38.8173 137.55 38.8173 137.55 41.9275 133.95 41.9275 133.95 64.2015 137.55 64.2015 137.55 67.3486 126.358 67.3486 126.358 64.2015Z" fill="#FFFFFF" fill-rule="nonzero" fill-opacity="1" transform="matrix(1 0 0 1.00238 22 42)"/><path d="M151.289 54.7851 152.587 54.7851 152.587 54.0136C152.587 50.781 150.726 49.6543 148.228 49.6543 144.995 49.6543 142.363 51.6381 142.363 51.6381L140.782 48.8462C140.782 48.8462 143.771 46.4216 148.546 46.4216 153.762 46.4216 156.506 49.1278 156.506 54.3076L156.506 63.4424C156.506 64.0547 156.824 64.3363 157.399 64.3363L159.457 64.3363 159.457 67.3486 155.379 67.3486C153.555 67.3486 152.832 66.4548 152.832 65.12L152.832 64.8383C152.832 64.0302 152.991 63.5037 152.991 63.5037L152.905 63.5037C152.905 63.5037 151.13 67.8263 146.158 67.8263 142.766 67.8263 139.374 65.8425 139.374 61.6424 139.374 55.2259 147.897 54.7851 151.289 54.7851ZM147.003 64.8139C150.481 64.8139 152.624 61.2628 152.624 58.1893L152.624 57.3443 151.62 57.3443C149.758 57.3443 143.33 57.43 143.33 61.3484 143.33 63.1485 144.664 64.8139 147.003 64.8139Z" fill="#FFFFFF" fill-rule="nonzero" fill-opacity="1" transform="matrix(1 0 0 1.00238 22 42)"/><path d="M160.461 60.7604 163.901 60.7604 163.901 62.0952C163.901 63.834 166.326 64.6421 168.591 64.6421 170.894 64.6421 172.718 63.7115 172.718 62.0094 172.718 59.9522 170.453 59.3032 167.624 58.2869 164.587 57.1603 161.244 55.7766 161.244 52.0664 161.244 48.0255 165.248 46.409 168.8 46.409 171.665 46.409 175.877 47.5356 175.877 50.5356L175.877 52.9969 172.437 52.9969 172.437 51.6744C172.437 50.4254 170.82 49.5683 168.836 49.5683 166.901 49.5683 165.199 50.3764 165.199 52.0296 165.199 53.9644 167.465 54.7725 169.926 55.6297 173.073 56.6828 176.674 58.0174 176.674 61.8135 176.674 65.6952 173.122 67.8381 168.469 67.8381 164.747 67.8381 160.473 66.1851 160.473 62.9523L160.473 60.7604 160.461 60.7604Z" fill="#FFFFFF" fill-rule="nonzero" fill-opacity="1" transform="matrix(1 0 0 1.00238 22 42)"/><path d="M189.311 46.4216C195.409 46.4216 200.343 50.9033 200.343 57.0872 200.343 63.3077 195.409 67.8384 189.311 67.8384 183.213 67.8384 178.278 63.3077 178.278 57.0872 178.278 50.9033 183.213 46.4216 189.311 46.4216ZM189.311 64.4465C193.156 64.4465 196.34 61.3729 196.34 57.0872 196.34 52.8381 193.144 49.8135 189.311 49.8135 185.429 49.8135 182.282 52.8503 182.282 57.0872 182.282 61.3729 185.441 64.4465 189.311 64.4465Z" fill="#FFFFFF" fill-rule="nonzero" fill-opacity="1" transform="matrix(1 0 0 1.00238 22 42)"/><path d="M201.311 64.324 204.507 64.324 204.507 50.8298C204.507 50.2177 204.189 49.936 203.613 49.936L201.102 49.936 201.102 46.8992 205.719 46.8992C207.494 46.8992 208.303 47.6706 208.303 49.1645L208.303 50.2177C208.303 50.8666 208.18 51.3931 208.18 51.3931L208.267 51.3931C208.67 50.3033 211.058 46.4216 216.225 46.4216 220.915 46.4216 223.009 49.0544 223.009 54.2586L223.009 64.324 226.241 64.324 226.241 67.3486 219.091 67.3486 219.091 55.1402C219.091 52.2748 218.528 50.0095 215.245 50.0095 211.12 50.0095 208.412 53.7687 208.412 57.8463L208.412 64.3118 211.646 64.3118 211.646 67.3486 201.298 67.3486 201.298 64.324 201.311 64.324Z" fill="#FFFFFF" fill-rule="nonzero" fill-opacity="1" transform="matrix(1 0 0 1.00238 22 42)"/><path d="M242.858 52.0418 242.858 51.9561C242.858 51.9561 238.903 50.6581 238.903 45.6866 238.903 40.96 242.821 38.3272 248.039 38.3272 249.74 38.3272 251.589 38.768 251.589 38.768L250.573 41.964C250.573 41.964 249.397 41.7191 248.429 41.7191 245.357 41.7191 242.968 43.2988 242.968 46.0784 242.968 47.9397 243.814 50.6458 248.259 50.6458L254.32 50.6458 254.32 46.6907 258.238 46.6907 258.238 50.6458 261.997 50.6458 261.997 53.9644 258.238 53.9644 258.238 57.846C258.238 64.189 254.284 67.8259 248.014 67.8259 241.793 67.8259 237.667 64.1523 237.667 59.3766 237.678 56.1562 239.576 53.0827 242.858 52.0418ZM248.026 64.238C251.821 64.238 254.333 62.2175 254.333 57.6868L254.333 53.9644 248.063 53.9644C243.985 53.9644 241.756 55.899 241.756 59.0583 241.769 62.0217 244.108 64.238 248.026 64.238Z" fill="#FFFFFF" fill-rule="nonzero" fill-opacity="1" transform="matrix(1 0 0 1.00238 22 42)"/><path d="M271.096 64.2015 273.839 64.2015 282.938 38.8173 287.504 38.8173 296.602 64.2015 299.346 64.2015 299.346 67.3486 289.439 67.3486 289.439 64.2015 292.477 64.2015 290.248 57.8585 280.145 57.8585 277.917 64.2015 280.991 64.2015 280.991 67.3486 271.084 67.3486 271.084 64.2015 271.096 64.2015ZM289.243 54.6259 285.766 44.7195C285.361 43.544 285.276 42.5399 285.276 42.5399L285.154 42.5399C285.154 42.5399 285.031 43.5562 284.664 44.7195L281.149 54.6259 289.243 54.6259Z" fill="#FFFFFF" fill-rule="nonzero" fill-opacity="1" transform="matrix(1 0 0 1.00238 22 42)"/><path d="M300.767 64.324 303.963 64.324 303.963 50.8298C303.963 50.2177 303.644 49.936 303.068 49.936L300.558 49.936 300.558 46.8992 305.162 46.8992C306.938 46.8992 307.745 47.6706 307.745 49.1645L307.745 50.2177C307.745 50.8666 307.623 51.3931 307.623 51.3931L307.709 51.3931C308.113 50.3033 310.502 46.4216 315.669 46.4216 320.358 46.4216 322.452 49.0544 322.452 54.2586L322.452 64.324 325.685 64.324 325.685 67.3486 318.534 67.3486 318.534 55.1402C318.534 52.2748 317.97 50.0095 314.689 50.0095 310.562 50.0095 307.856 53.7687 307.856 57.8463L307.856 64.3118 311.088 64.3118 311.088 67.3486 300.742 67.3486 300.742 64.324 300.767 64.324Z" fill="#FFFFFF" fill-rule="nonzero" fill-opacity="1" transform="matrix(1 0 0 1.00238 22 42)"/><path d="M336.118 46.4216C341.935 46.4216 344.971 50.7075 344.971 55.9974 344.971 56.5239 344.849 57.4913 344.849 57.4913L329.897 57.4913C330.142 62.0219 333.325 64.4465 336.975 64.4465 340.526 64.4465 343.073 62.1444 343.073 62.1444L344.69 65.0098C344.69 65.0098 341.616 67.8384 336.73 67.8384 330.302 67.8384 325.893 63.1852 325.893 57.1239 325.893 50.6217 330.302 46.4216 336.118 46.4216ZM340.93 54.981C340.808 51.381 338.628 49.5197 336.044 49.5197 333.057 49.5197 330.632 51.5401 330.069 54.981L340.93 54.981Z" fill="#FFFFFF" fill-rule="nonzero" fill-opacity="1" transform="matrix(1 0 0 1.00238 22 42)"/><path d="M348.485 41.8541 345.094 41.8541 345.094 38.8173 352.404 38.8173 352.404 61.2873C352.404 63.0261 352.808 64.2015 354.584 64.2015 355.232 64.2015 355.673 64.1649 355.673 64.1649L355.637 67.3976C355.637 67.3976 354.829 67.4833 353.898 67.4833 350.984 67.4833 348.485 66.3077 348.485 61.5444L348.485 41.8541Z" fill="#FFFFFF" fill-rule="nonzero" fill-opacity="1" transform="matrix(1 0 0 1.00238 22 42)"/><path d="M358.428 41.8541 355.036 41.8541 355.036 38.8173 362.346 38.8173 362.346 61.2873C362.346 63.0261 362.751 64.2015 364.526 64.2015 365.176 64.2015 365.617 64.1649 365.617 64.1649L365.58 67.3976C365.58 67.3976 364.771 67.4833 363.841 67.4833 360.927 67.4833 358.428 66.3077 358.428 61.5444L358.428 41.8541Z" fill="#FFFFFF" fill-rule="nonzero" fill-opacity="1" transform="matrix(1 0 0 1.00238 22 42)"/><path d="M376.894 46.4216C382.992 46.4216 387.928 50.9033 387.928 57.0872 387.928 63.3077 382.992 67.8384 376.894 67.8384 370.796 67.8384 365.862 63.3077 365.862 57.0872 365.862 50.9033 370.784 46.4216 376.894 46.4216ZM376.894 64.4465C380.739 64.4465 383.923 61.3729 383.923 57.0872 383.923 52.8381 380.727 49.8135 376.894 49.8135 373.012 49.8135 369.865 52.8503 369.865 57.0872 369.865 61.3729 373.012 64.4465 376.894 64.4465Z" fill="#FFFFFF" fill-rule="nonzero" fill-opacity="1" transform="matrix(1 0 0 1.00238 22 42)"/><path d="M398.556 64.2015 402.107 64.2015 402.107 41.9275 398.556 41.9275 398.556 38.8173 411.855 38.8173C413.593 38.8173 415.332 38.9398 416.74 39.5888 419.691 40.8377 421.59 43.8745 421.59 47.6706 421.59 51.6748 419.483 54.9074 416.214 56.034 414.879 56.5239 413.508 56.6462 411.928 56.6462L406.147 56.6462 406.147 64.2015 409.748 64.2015 409.748 67.3486 398.556 67.3486 398.556 64.2015ZM411.438 53.3278C412.735 53.3278 413.74 53.1196 414.634 52.7646 416.459 51.9563 417.499 50.1319 417.499 47.6706 417.499 45.3685 416.568 43.6663 414.953 42.8215 414.058 42.3317 412.846 42.1357 411.475 42.1357L406.136 42.1357 406.136 53.3278 411.438 53.3278Z" fill="#FFFFFF" fill-rule="nonzero" fill-opacity="1" transform="matrix(1 0 0 1.00238 22 42)"/><path d="M438.56 38.3398C441.99 38.3398 449.435 39.5888 449.435 43.997L449.435 47.4747 445.676 47.4747 445.676 45.2461C445.676 42.7358 441.353 41.8052 438.72 41.8052 432.622 41.8052 428.128 46.2869 428.128 52.7523 428.128 59.4995 432.733 64.3118 438.965 64.3118 440.985 64.3118 446.079 63.5894 446.079 60.9566L446.079 58.7403 449.839 58.7403 449.839 62.2179C449.839 66.418 442.687 67.8384 438.72 67.8384 430.148 67.8384 423.965 61.2505 423.965 52.9238 423.965 44.5603 430.308 38.3398 438.56 38.3398Z" fill="#FFFFFF" fill-rule="nonzero" fill-opacity="1" transform="matrix(1 0 0 1.00238 22 42)"/></g></g></g></g></svg>